<svg xmlns="http://www.w3.org/2000/svg" width="104.478" height="41.691" viewBox="0 0 104.478 41.691">
  <g id="black_logo-white_bg" transform="translate(0.02 -0.02)">
    <path id="Path_87" data-name="Path 87" d="M95.355,403.954c-1.292,0-1.95-.636-1.95-1.682,0-1.95,2.174-2.606,6.141-3.028,0,2.6-1.758,4.71-4.2,4.71Zm1.706-14.614a14.02,14.02,0,0,0-7.864,2.745l1.616,3.413a9.3,9.3,0,0,1,5.782-2.411c1.967,0,3.055.658,3.055,1.984,0,.89-.719,1.341-2.079,1.519-5.085.658-9.071,2.062-9.071,5.98,0,3.106,2.211,4.985,5.665,4.985a6.684,6.684,0,0,0,5.7-3.169v2.682h4.6V395.831c0-4.632-3.215-6.5-7.4-6.5Z" transform="translate(-88.52 -365.844)" fill="#101820" fill-rule="evenodd"/>
    <path id="Path_88" data-name="Path 88" d="M312.91,389.87v17.2h4.919v-8.288c0-3.937,2.384-5.095,4.044-5.095a3.771,3.771,0,0,1,2.1.622l.9-4.546a5.568,5.568,0,0,0-2.194-.4,5.2,5.2,0,0,0-5.166,3.4V389.87H312.91" transform="translate(-258.224 -365.87)" fill="#101820" fill-rule="evenodd"/>
    <path id="Path_89" data-name="Path 89" d="M390.848,389.37a6.818,6.818,0,0,0-5.558,3.018,6.071,6.071,0,0,0-10.546.088v-2.6H370v17.2h4.924v-8.856c0-3.169,1.665-4.7,3.218-4.7,1.407,0,2.7.909,2.7,3.257v10.3h4.915v-8.856c0-3.215,1.624-4.7,3.25-4.7,1.3,0,2.682.946,2.682,3.223v10.336H396.6V395.184a5.418,5.418,0,0,0-5.743-5.814" transform="translate(-301.397 -365.874)" fill="#101820" fill-rule="evenodd"/>
    <path id="Path_90" data-name="Path 90" d="M187.5,364.768h-4.456V363.02c0-2.277,1.3-2.925,2.418-2.925a4.92,4.92,0,0,1,2.194.548l1.516-3.469a8.43,8.43,0,0,0-4.334-1c-3.142,0-6.718,1.772-6.718,7.333v1.265h-7.447V363.02c0-2.277,1.3-2.925,2.418-2.925a4.661,4.661,0,0,1,2.194.549l1.516-3.469a8.652,8.652,0,0,0-4.332-1c-3.142,0-6.718,1.772-6.718,7.333v1.265H162.9v3.793h2.855v13.408h4.915V368.561h7.457v13.408h4.915V368.561H187.5v-3.793" transform="translate(-144.783 -340.768)" fill="#101820" fill-rule="evenodd"/>
    <rect id="Rectangle_268" data-name="Rectangle 268" width="4.91" height="17.194" transform="translate(45.649 24)" fill="#101820"/>
    <path id="Path_91" data-name="Path 91" d="M276.58,314.127h4.81c2.806-8.822,12.325-16.577,23.646-16.577,13.768,0,25.667,10.482,25.667,26.8a33.538,33.538,0,0,1-1.365,9.9h4.668l.046-.161a39.54,39.54,0,0,0,1.155-9.724c0-18.2-13.261-31.3-30.162-31.3-13.276,0-25.109,9.215-28.463,21.062Z" transform="translate(-230.751 -293.05)" fill="#4a4af4" fill-rule="evenodd"/>
  </g>
</svg>
